<svg xmlns="http://www.w3.org/2000/svg" xmlns:xlink="http://www.w3.org/1999/xlink" version="1.1" x="0px" y="0px" viewBox="0 0 100 125" enable-background="new 0 0 100 100" xml:space="preserve"><path d="M96.834,80.373L66.103,20.067c-0.255-0.499-0.767-0.815-1.327-0.819c-0.003,0-0.007,0-0.01,0  c-0.557,0-1.067,0.308-1.327,0.801l-16.38,31.104L35.674,28.816c-0.254-0.499-0.766-0.815-1.326-0.819c-0.003,0-0.007,0-0.01,0  c-0.557,0-1.068,0.308-1.327,0.801L5.755,80.553c-0.245,0.465-0.229,1.024,0.043,1.475c0.271,0.449,0.759,0.725,1.284,0.725h25.82  h27.812c0.008,0,0.016,0.001,0.02,0h34.865c0.008,0,0.015,0.001,0.02,0c0.829,0,1.5-0.672,1.5-1.5  C97.118,80.924,97.013,80.62,96.834,80.373z M64.744,24.009l8.234,16.158c-0.831,0.746-1.701,1.149-2.652,1.183  c-2.132,0.099-4.028-1.662-4.043-1.675c-0.569-0.546-1.466-0.555-2.049-0.022c-3.543,3.243-7.139,1.006-7.951,0.422L64.744,24.009z   M34.316,32.758l6.522,12.798c-0.652,0.567-1.332,0.873-2.068,0.899c-1.751,0.07-3.293-1.364-3.304-1.373  c-0.571-0.546-1.466-0.555-2.049-0.022c-2.379,2.175-4.788,1.34-5.95,0.703L34.316,32.758z M26.07,48.417  c1.066,0.57,2.472,1.042,4.024,1.042c1.388,0,2.889-0.375,4.354-1.391c0.981,0.65,2.553,1.432,4.397,1.386  c1.218-0.038,2.349-0.435,3.382-1.17l3.119,6.119l-13.35,25.35H9.567L26.07,48.417z M61.633,79.752h-3.367H35.387l11.627-22.077  l1.711-3.249l6.15-11.68c1.256,0.822,3.156,1.607,5.298,1.607c1.622,0,3.38-0.451,5.091-1.679c1.101,0.755,2.957,1.757,5.138,1.674  c1.434-0.044,2.766-0.527,3.977-1.434L93.15,79.752H61.633z"/></svg>
