<svg xmlns="http://www.w3.org/2000/svg" xmlns:xlink="http://www.w3.org/1999/xlink" version="1.1" x="0px" y="0px" fill="#cc9900" viewBox="0 0 100 125" enable-background="new 0 0 100 100" xml:space="preserve"><path d="M90.514,62.849c-5.904-1.784-8.015-3.661-13.654-8.671c-2.351-2.089-5.274-4.688-9.307-8.009  c-4.063-3.345-8.166-5.042-12.193-5.042c-2.042,0-3.956,0.417-5.758,1.116c-0.079-0.091-0.152-0.176-0.232-0.268  c-3.678-4.229-7.414-6.373-11.104-6.373c-6.916,0-12.197,7.221-16.441,13.021c-0.297,0.406-0.588,0.804-0.873,1.191  C15,57.879,6.856,62.879,6.775,62.929l-2.417,1.47h12.614h56.594h22.075L90.514,62.849z M39.171,62.814  c4.186-6.281,2.031-10.789,0.431-14.136c-0.597-1.25-1.112-2.328-1.176-3.241c-0.199-2.875,2.4-6.31,3.367-7.482  c2.1,0.901,4.233,2.589,6.381,5.058c3.604,4.144,6.222,7.391,8.325,10c4.054,5.028,6.218,7.714,9.771,9.801H39.171z M69.82,62.814  c-5.161-2.208-7.073-4.572-12.089-10.795c-0.689-0.855-1.443-1.787-2.26-2.79c-0.008-0.045-0.021-0.092-0.024-0.136  c-0.196-2.023,2.425-4.683,3.771-5.819c2.411,0.703,4.833,2.063,7.326,4.116c4.01,3.303,6.923,5.89,9.263,7.968  c4.201,3.734,6.575,5.844,10.065,7.455H69.82z"/></svg>
