<svg xmlns="http://www.w3.org/2000/svg" xmlns:xlink="http://www.w3.org/1999/xlink" version="1.1" x="0px" y="0px" viewBox="0 0 100 125" enable-background="new 0 0 100 100" fill="#cc3300" xml:space="preserve"><path d="M60.071,48.385V43.75c0-1.886,1.534-3.42,3.42-3.42h13.385c3.105,0,5.632-2.526,5.632-5.631  c0-3.105-2.526-5.631-5.632-5.631h-1.589c-0.618-6.015-5.715-10.723-11.891-10.723h-1.902c-0.581-3.182-3.374-5.601-6.721-5.601  H52.55c-0.429-4.298-4.066-7.665-8.475-7.665c-4.436,0-8.092,3.41-8.483,7.746c-4.236,0.578-7.524,4.18-7.607,8.553H26.04  c-4.455,0-8.079,3.624-8.079,8.079s3.624,8.079,8.079,8.079h0.642c0.561,2.476,2.779,4.329,5.422,4.329h4.332  c1.886,0,3.42,1.534,3.42,3.419v3.257C31.636,66.408,19.687,82.201,5,94.922h42.509h7.915H95  C80.27,82.164,68.294,66.316,60.071,48.385z M42.318,48.021v-2.737c0-3.242-2.638-5.88-5.881-5.88h-4.332  c-1.708,0-3.098-1.39-3.098-3.099c0-0.679-0.551-1.23-1.23-1.23H26.04c-3.098,0-5.618-2.52-5.618-5.618s2.52-5.618,5.618-5.618  h3.173c0.679,0,1.23-0.551,1.23-1.23v-1.06c0-3.498,2.846-6.344,6.344-6.344c0.679,0,1.23-0.551,1.23-1.23v-0.378  c0-3.34,2.717-6.057,6.057-6.057s6.057,2.717,6.057,6.057v0.378c0,0.679,0.551,1.23,1.23,1.23h3.412c2.41,0,4.37,1.961,4.37,4.37  c0,0.679,0.551,1.23,1.23,1.23h3.021c5.234,0,9.493,4.259,9.493,9.493c0,0.679,0.551,1.23,1.23,1.23h2.757  c1.748,0,3.171,1.422,3.171,3.17c0,1.748-1.422,3.17-3.171,3.17H63.491c-3.243,0-5.881,2.638-5.881,5.881v4.271H42.318z   M49.484,26.483c0.344,0.586,0.148,1.34-0.438,1.684c-0.585,0.344-1.34,0.148-1.684-0.438c-0.964-1.643-3.086-2.196-4.729-1.23  c-0.796,0.467-1.362,1.217-1.595,2.11c-0.232,0.893-0.103,1.823,0.365,2.619c0.344,0.586,0.148,1.34-0.438,1.684  c-0.196,0.115-0.41,0.17-0.622,0.17c-0.422,0-0.833-0.217-1.062-0.608c-0.8-1.363-1.022-2.956-0.624-4.485  c0.398-1.53,1.367-2.813,2.73-3.613C44.2,22.725,47.832,23.67,49.484,26.483z"/></svg>
