<svg xmlns="http://www.w3.org/2000/svg" viewBox="0 0 32 40" x="0px" y="0px"><title>Wave</title><g><path fill="#3333ff" d="M3,5.5a2.82,2.82,0,0,1,2,.79A4.75,4.75,0,0,0,8.2,7.5a4.75,4.75,0,0,0,3.21-1.21,2.89,2.89,0,0,1,4,0,4.87,4.87,0,0,0,6.42,0,2.9,2.9,0,0,1,4,0A4.75,4.75,0,0,0,29,7.5a1,1,0,0,0,0-2,2.83,2.83,0,0,1-2-.79,4.87,4.87,0,0,0-6.42,0,2.9,2.9,0,0,1-4,0,4.87,4.87,0,0,0-6.42,0,2.89,2.89,0,0,1-4,0A4.75,4.75,0,0,0,3,3.5a1,1,0,0,0,0,2Z"/><path fill="#3333ff" d="M29,12.5a2.83,2.83,0,0,1-2-.79,4.87,4.87,0,0,0-6.42,0,2.9,2.9,0,0,1-4,0,4.87,4.87,0,0,0-6.42,0,2.89,2.89,0,0,1-4,0A4.75,4.75,0,0,0,3,10.5a1,1,0,0,0,0,2,2.82,2.82,0,0,1,2,.79A4.75,4.75,0,0,0,8.2,14.5a4.75,4.75,0,0,0,3.21-1.21,2.89,2.89,0,0,1,4,0,4.87,4.87,0,0,0,6.42,0,2.9,2.9,0,0,1,4,0A4.75,4.75,0,0,0,29,14.5a1,1,0,0,0,0-2Z"/><path fill="#3333ff" d="M29,19.5a2.83,2.83,0,0,1-2-.79,4.87,4.87,0,0,0-6.42,0,2.9,2.9,0,0,1-4,0,4.87,4.87,0,0,0-6.42,0,2.89,2.89,0,0,1-4,0A4.75,4.75,0,0,0,3,17.5a1,1,0,0,0,0,2,2.82,2.82,0,0,1,2,.79A4.75,4.75,0,0,0,8.2,21.5a4.75,4.75,0,0,0,3.21-1.21,2.89,2.89,0,0,1,4,0,4.87,4.87,0,0,0,6.42,0,2.9,2.9,0,0,1,4,0A4.75,4.75,0,0,0,29,21.5a1,1,0,0,0,0-2Z"/><path fill="#3333ff" d="M29,26.5a2.83,2.83,0,0,1-2-.79,4.87,4.87,0,0,0-6.42,0,2.9,2.9,0,0,1-4,0,4.87,4.87,0,0,0-6.42,0,2.89,2.89,0,0,1-4,0A4.75,4.75,0,0,0,3,24.5a1,1,0,0,0,0,2,2.82,2.82,0,0,1,2,.79A4.75,4.75,0,0,0,8.2,28.5a4.75,4.75,0,0,0,3.21-1.21,2.89,2.89,0,0,1,4,0,4.87,4.87,0,0,0,6.42,0,2.9,2.9,0,0,1,4,0A4.75,4.75,0,0,0,29,28.5a1,1,0,0,0,0-2Z"/></g></svg>
